<?xml version="1.0" encoding="UTF-8" standalone="no"?>
<!-- Generator: Adobe Illustrator 28.0.0, SVG Export Plug-In . SVG Version: 6.00 Build 0)  -->

<svg
   version="1.1"
   id="Layer_1"
   x="0px"
   y="0px"
   viewBox="0 0 1000 880"
   xml:space="preserve"
   sodipodi:docname="logo_backup.svg"
   width="1000"
   height="880"
   inkscape:version="1.3.2 (091e20e, 2023-11-25, custom)"
   xmlns:inkscape="http://www.inkscape.org/namespaces/inkscape"
   xmlns:sodipodi="http://sodipodi.sourceforge.net/DTD/sodipodi-0.dtd"
   xmlns="http://www.w3.org/2000/svg"
   xmlns:svg="http://www.w3.org/2000/svg"><defs
   id="defs8" /><sodipodi:namedview
   id="namedview8"
   pagecolor="#ffffff"
   bordercolor="#000000"
   borderopacity="0.25"
   inkscape:showpageshadow="2"
   inkscape:pageopacity="0.0"
   inkscape:pagecheckerboard="0"
   inkscape:deskcolor="#d1d1d1"
   showgrid="true"
   inkscape:zoom="1.197"
   inkscape:cx="499.16458"
   inkscape:cy="500"
   inkscape:window-width="2560"
   inkscape:window-height="1411"
   inkscape:window-x="-9"
   inkscape:window-y="-9"
   inkscape:window-maximized="1"
   inkscape:current-layer="Layer_1"><inkscape:grid
     id="grid8"
     units="px"
     originx="0"
     originy="0"
     spacingx="1"
     spacingy="1"
     empcolor="#0099e5"
     empopacity="0.30196078"
     color="#0099e5"
     opacity="0.14901961"
     empspacing="5"
     dotted="false"
     gridanglex="30"
     gridanglez="30"
     visible="true" /></sodipodi:namedview>
<style
   type="text/css"
   id="style1">
	.st0{fill:none;}
	.st1{fill:#FFFFFF;}
	.st2{fill:none;stroke:#A7A9AC;stroke-width:5;stroke-miterlimit:10;}
	.st3{fill:#FFFFFF;stroke:#A7A9AC;stroke-miterlimit:10;}
	.st4{fill:#A7A9AC;}
</style>
<line
   class="st0"
   x1="500.34"
   y1="876"
   x2="500.17001"
   y2="875.78998"
   id="line1" />
<line
   class="st0"
   x1="0.69999999"
   y1="251.88"
   x2="0"
   y2="251"
   id="line2" />
<line
   class="st0"
   x1="0.69999999"
   y1="251.88"
   x2="0"
   y2="251.88"
   id="line3" />
<polygon
   class="st1"
   points="750,125 700,250 653.85,365.38 649.88,375.31 500,750 350.23,375.57 346.15,365.38 300,250 250,125 "
   id="polygon3"
   transform="translate(0,-124)" />
<polygon
   class="st1"
   points="727.27,420.45 749.89,375.22 800.14,375.18 1000,375 875,531.25 500.17,999.79 500,1000 100,500 0.7,375.88 199.44,375.7 250.33,375.66 272.73,420.45 500,875 "
   id="polygon4"
   transform="translate(0,-124)" />
<line
   class="st0"
   x1="750"
   y1="251"
   x2="749.89001"
   y2="251.22"
   id="line4" />
<line
   class="st0"
   x1="250.33"
   y1="251.66"
   x2="250"
   y2="251"
   id="line5" />
<path
   class="st2"
   d="M 643.85,126 C 564.61,229.52 436.38,229.52 357.14,126 436.38,22.48 564.62,22.48 643.85,126 Z"
   id="path5" />
<path
   class="st3"
   d="m 500.35,48.36 c -42.88,0 -77.64,34.76 -77.64,77.64 0,42.88 34.76,77.64 77.64,77.64 42.88,0 77.64,-34.76 77.64,-77.64 0,-42.88 -34.76,-77.64 -77.64,-77.64 z M 500,180.2 c -29.93,0 -54.2,-24.27 -54.2,-54.2 0,-29.93 24.27,-54.2 54.2,-54.2 5.51,0 10.83,0.82 15.84,2.36 -2.64,3.67 -4.19,8.17 -4.19,13.02 0,12.37 10.03,22.39 22.4,22.39 5.9,0 11.28,-2.29 15.28,-6.04 3.13,6.84 4.87,14.46 4.87,22.47 0,29.93 -24.27,54.2 -54.2,54.2 z"
   id="path6" />
<path
   class="st0"
   d="m 554.2,126 c 0,29.93 -24.27,54.2 -54.2,54.2 -29.93,0 -54.2,-24.27 -54.2,-54.2 0,-29.93 24.27,-54.2 54.2,-54.2 5.51,0 10.83,0.82 15.84,2.36 -2.64,3.67 -4.19,8.17 -4.19,13.02 0,12.37 10.03,22.39 22.4,22.39 5.9,0 11.28,-2.29 15.28,-6.04 3.13,6.84 4.87,14.46 4.87,22.47 z"
   id="path7" />
<path
   class="st4"
   d="m 554.2,126 c 0,29.93 -24.27,54.2 -54.2,54.2 -29.93,0 -54.2,-24.27 -54.2,-54.2 0,-29.93 24.27,-54.2 54.2,-54.2 5.51,0 10.83,0.82 15.84,2.36 -2.64,3.67 -4.19,8.17 -4.19,13.02 0,12.37 10.03,22.39 22.4,22.39 5.9,0 11.28,-2.29 15.28,-6.04 3.13,6.84 4.87,14.46 4.87,22.47 z"
   id="path8" />
</svg>
